<?xml version="1.0" encoding="utf-8"?>
<!-- Generator: Adobe Illustrator 16.0.0, SVG Export Plug-In . SVG Version: 6.00 Build 0)  -->
<!DOCTYPE svg PUBLIC "-//W3C//DTD SVG 1.1//EN" "http://www.w3.org/Graphics/SVG/1.1/DTD/svg11.dtd">
<svg version="1.1"
	 id="svg4191" inkscape:version="0.91 r13725" sodipodi:docname="Roj_emblem.svg" xmlns:dc="http://purl.org/dc/elements/1.1/" xmlns:cc="http://creativecommons.org/ns#" xmlns:rdf="http://www.w3.org/1999/02/22-rdf-syntax-ns#" xmlns:svg="http://www.w3.org/2000/svg" xmlns:sodipodi="http://sodipodi.sourceforge.net/DTD/sodipodi-0.dtd" xmlns:inkscape="http://www.inkscape.org/namespaces/inkscape"
	 xmlns="http://www.w3.org/2000/svg" xmlns:xlink="http://www.w3.org/1999/xlink" x="0px" y="0px" width="1000px" height="1000px"
	 viewBox="0 0 1000 1000" enable-background="new 0 0 1000 1000" xml:space="preserve">
<sodipodi:namedview  units="px" inkscape:window-y="-8" inkscape:window-maximized="1" inkscape:window-width="1680" inkscape:window-height="987" inkscape:document-units="px" inkscape:current-layer="layer1" inkscape:pageshadow="2" inkscape:pageopacity="0.0" inkscape:window-x="-8" showgrid="false" inkscape:cy="743.98922" inkscape:cx="511.50778" inkscape:zoom="0.49497475" borderopacity="1.0" bordercolor="#666666" pagecolor="#ffffff" id="base">
	</sodipodi:namedview>
<g id="layer1" transform="translate(0,-52.362271)" inkscape:groupmode="layer" inkscape:label="Layer 1">
</g>
<g>
	<polygon fill="#CC0033" points="446.331,829.613 499.999,886.35 515.332,113.529 484.665,81.326 	"/>
	<path fill="#CC0033" d="M875.678,901.684l102.735-44.465C780.607,660.943,667.138,588.875,480.068,584.275
		C242.392,601.143,87.523,696.213,21.587,884.818l46.002-9.199c188.607-233.074,295.942-207.008,415.543-220.807
		C610.403,659.408,740.741,742.211,875.678,901.684L875.678,901.684L875.678,901.684z"/>
	<path fill="#CC0033" d="M182.59,104.329l-98.136,26.068c95.069,168.671,231.54,271.407,406.345,279.075
		c231.54,1.533,364.944-154.871,456.948-295.942l-78.205,23C720.806,346.603,559.8,354.269,487.73,343.535
		C366.594,334.336,266.925,234.666,182.59,104.329L182.59,104.329z"/>
</g>
</svg>
